<?xml version="1.0" standalone="no"?>
<!DOCTYPE svg PUBLIC "-//W3C//DTD SVG 20010904//EN"
 "http://www.w3.org/TR/2001/REC-SVG-20010904/DTD/svg10.dtd">
<svg version="1.0" xmlns="http://www.w3.org/2000/svg"
 width="1726.000000pt" height="1716.000000pt" viewBox="0 0 1726.000000 1716.000000"
 preserveAspectRatio="xMidYMid meet">

<g transform="translate(0.000000,1716.000000) scale(0.100000,-0.100000)"
fill="green" stroke="none">
<path d="M2025 17133 c-90 -5 -334 -40 -442 -64 -283 -61 -585 -209 -816 -397
-99 -82 -260 -250 -336 -352 -281 -379 -425 -864 -395 -1330 5 -76 7 -2328 4
-5190 -3 -2780 -2 -5115 3 -5188 4 -73 19 -193 33 -265 46 -241 200 -655 292
-789 48 -70 389 -408 490 -486 250 -192 563 -340 854 -403 51 -11 115 -27 143
-35 27 -8 115 -19 195 -25 217 -15 6055 -6 6135 9 171 34 343 169 424 333 90
182 90 376 0 558 -81 164 -253 299 -424 333 -45 8 -816 13 -3065 18 -2230 5
-3021 10 -3069 18 -201 37 -359 120 -501 262 -107 107 -165 199 -211 333 -46
134 -50 182 -37 502 7 191 12 1554 15 3998 l4 3707 7030 2 c3866 1 7039 2
7052 2 l22 1 6 -690 c6 -773 5 -759 80 -913 56 -116 171 -233 279 -285 135
-64 328 -86 436 -49 206 72 413 307 455 517 16 80 25 3776 10 3970 -11 132
-60 353 -118 525 -57 171 -190 415 -312 575 -64 85 -232 256 -321 328 -178
144 -430 281 -642 351 -58 19 -137 48 -175 65 -38 17 -96 36 -129 42 -46 10
-1449 13 -6484 14 -3534 1 -6452 0 -6485 -2z m8615 -1276 c3975 -2 4168 -3
4225 -20 267 -80 473 -288 541 -547 20 -76 20 -95 17 -810 l-3 -525 -7047 3
c-3875 1 -7049 4 -7051 7 -3 2 -8 174 -13 382 -4 208 -11 488 -14 623 -6 228
-5 251 14 325 85 323 342 544 656 564 55 3 1092 5 2305 4 1213 -2 4079 -4
6370 -6z"/>
<path d="M10505 15445 c-155 -24 -258 -66 -275 -111 -16 -40 -13 -833 3 -864
30 -60 172 -103 397 -121 116 -9 178 -8 267 1 194 20 350 69 372 116 8 17 11
154 11 445 l0 421 -28 28 c-35 34 -131 66 -262 85 -116 18 -374 18 -485 0z"/>
<path d="M12185 15444 c-117 -18 -210 -50 -249 -84 l-31 -28 -3 -404 c-3 -477
-5 -469 78 -510 113 -56 393 -89 595 -69 184 18 362 73 379 116 3 9 6 209 6
445 l0 428 -30 25 c-70 59 -271 97 -505 96 -82 -1 -190 -7 -240 -15z"/>
<path d="M13874 15446 c-122 -20 -223 -53 -254 -85 -20 -20 -30 -42 -35 -81
-11 -77 4 -779 17 -812 22 -59 172 -102 406 -120 285 -20 589 41 632 127 13
25 15 94 15 430 0 464 4 445 -92 488 -101 45 -190 58 -408 62 -135 3 -226 0
-281 -9z"/>
<path d="M8264 10769 c-56 -4 -121 -13 -145 -19 -55 -15 -147 -61 -219 -110
-30 -21 -100 -67 -155 -103 -362 -235 -599 -574 -714 -1022 l-31 -120 0 -730
c0 -799 4 -868 60 -1091 110 -439 396 -815 791 -1042 132 -76 396 -181 419
-167 4 2 29 -3 55 -11 27 -8 115 -19 195 -25 219 -15 5815 -6 5895 10 79 15
206 77 275 133 30 24 96 72 146 106 322 219 550 528 663 899 50 162 63 252 62
416 l-1 147 130 0 131 0 49 -46 c27 -25 58 -65 70 -88 20 -42 20 -57 20 -954
l0 -912 -2027 0 c-2167 0 -2167 0 -2290 -49 -84 -33 -251 -120 -324 -167 -221
-146 -401 -377 -493 -633 -15 -40 -36 -87 -48 -104 -22 -30 -22 -37 -21 -358
l1 -327 -92 -17 c-464 -84 -841 -411 -990 -856 -76 -226 -81 -341 -67 -1534 8
-747 11 -858 26 -915 82 -315 191 -511 385 -693 196 -185 426 -294 718 -340
126 -20 172 -21 592 -21 560 1 649 8 857 76 300 96 571 324 719 603 63 118 91
191 124 331 49 200 52 281 47 1249 -4 966 -2 924 -63 1155 -31 120 -124 311
-202 415 -199 267 -498 451 -817 502 -55 9 -117 20 -137 25 l-38 9 0 187 0
187 2152 0 c1712 0 2168 3 2228 13 45 8 114 31 175 59 55 25 129 58 165 75
148 67 319 205 424 341 112 147 185 303 229 492 20 87 21 118 24 1063 2 552 8
972 13 972 18 0 -10 222 -46 360 -100 385 -330 712 -654 928 -47 31 -110 77
-140 101 -73 59 -200 118 -280 131 -36 6 -150 13 -255 16 -104 4 -193 9 -196
13 -3 3 -11 42 -18 86 -69 427 -340 841 -716 1093 -135 91 -433 239 -510 254
-70 13 -5980 21 -6151 7z m1132 -1321 c-13 -29 -193 -422 -401 -873 -208 -451
-391 -854 -407 -895 -17 -41 -34 -79 -38 -84 -13 -14 -96 32 -153 84 -29 27
-65 70 -80 97 -57 105 -57 108 -57 829 l0 661 30 61 c20 38 53 81 91 116 l60
56 489 0 490 0 -24 -52z m2114 46 c0 -4 -167 -369 -372 -813 -411 -893 -433
-941 -450 -1023 l-12 -58 -573 0 -573 0 14 33 c7 17 188 410 400 872 213 461
399 874 414 917 l27 78 563 0 c309 0 562 -3 562 -6z m1987 -171 c-45 -98 -242
-526 -437 -950 l-355 -773 -539 0 c-508 0 -538 1 -533 18 3 9 184 404 402 877
218 473 410 893 427 933 l31 72 543 0 542 0 -81 -177z m768 -1563 c-21 -41
-73 -98 -119 -132 l-39 -28 -209 0 c-129 0 -208 4 -206 10 2 5 134 293 293
639 l290 631 3 -546 c2 -472 0 -549 -13 -574z m-2465 -5540 l0 -940 -97 7
c-54 5 -261 8 -461 8 l-362 0 0 926 0 926 318 -4 c174 -2 367 0 427 5 61 5
125 10 143 11 l32 1 0 -940z"/>
</g>
</svg>
